<svg version="1.2" xmlns="http://www.w3.org/2000/svg" xmlns:xlink="http://www.w3.org/1999/xlink"
  overflow="visible" preserveAspectRatio="none" viewBox="0 0 102 102" height="42" width="42">
  <g transform="translate(1, 1)">
    <g>
      <path
        d="m89.062 18.75h-78.125c-4.3125 0.003906-7.8086 3.5-7.8125 7.8125v21.875c0.003906 4.3125 3.5 7.8086 7.8125 7.8125h78.125c4.3125-0.003906 7.8086-3.5 7.8125-7.8125v-21.875c-0.003906-4.3125-3.5-7.8086-7.8125-7.8125zm-75 3.125h71.875v3.125h-71.875zm6.25 31.25h-6.25v-3.125h6.25zm9.375 0h-6.25v-3.125h6.25zm9.375 0h-6.25v-3.125h6.25zm9.375 0h-6.25v-3.125h6.25zm9.375 0h-6.25v-3.125h6.25zm9.375 0h-6.25v-3.125h6.25zm9.375 0h-6.25v-3.125h6.25zm9.375 0h-6.25v-3.125h6.25zm0-6.25h-71.875v-3.125h71.875zm7.8125 1.5625c0 2.5898-2.0977 4.6875-4.6875 4.6875v-10.938c0-0.41406-0.16406-0.8125-0.45703-1.1055s-0.69141-0.45703-1.1055-0.45703h-75c-0.86328 0-1.5625 0.69922-1.5625 1.5625v10.938c-2.5898 0-4.6875-2.0977-4.6875-4.6875v-21.875c0-2.5898 2.0977-4.6875 4.6875-4.6875v4.6875c0 0.41406 0.16406 0.8125 0.45703 1.1055s0.69141 0.45703 1.1055 0.45703h75c0.41406 0 0.8125-0.16406 1.1055-0.45703s0.45703-0.69141 0.45703-1.1055v-4.6875c2.5898 0 4.6875 2.0977 4.6875 4.6875z"
        vector-effect="non-scaling-stroke" style="fill: rgb(0, 0, 0);" />
      <path d="m84.375 34.375h3.125v3.125h-3.125z" vector-effect="non-scaling-stroke"
        style="fill: rgb(0, 0, 0);" />
      <path d="m78.125 34.375h3.125v3.125h-3.125z" vector-effect="non-scaling-stroke"
        style="fill: rgb(0, 0, 0);" />
      <path d="m45.312 34.375h9.375v3.125h-9.375z" vector-effect="non-scaling-stroke"
        style="fill: rgb(0, 0, 0);" />
      <path
        d="m57.703 61.508-2.9102-1.1406-1.1211 2.8594h0.003906c-1.0664 2.7266-0.55078 5.8203 1.3438 8.0508 1.2031 1.3633 1.5508 3.2812 0.89453 4.9805l-1.1211 2.8594 2.9102 1.1406 1.1211-2.8594c1.0664-2.7266 0.55078-5.8203-1.3438-8.0508-1.2031-1.3633-1.5508-3.2812-0.89453-4.9805z"
        vector-effect="non-scaling-stroke" style="fill: rgb(0, 0, 0);" />
      <path
        d="m70.203 61.508-2.9102-1.1406-1.1211 2.8594h0.003906c-1.0664 2.7266-0.55078 5.8203 1.3438 8.0508 1.2031 1.3633 1.5508 3.2812 0.89453 4.9805l-1.1211 2.8594 2.9102 1.1406 1.1211-2.8594c1.0664-2.7266 0.55078-5.8203-1.3438-8.0508-1.2031-1.3633-1.5508-3.2812-0.89453-4.9805z"
        vector-effect="non-scaling-stroke" style="fill: rgb(0, 0, 0);" />
      <path
        d="m45.203 61.508-2.9102-1.1406-1.1211 2.8594h0.003906c-1.0664 2.7266-0.55078 5.8203 1.3438 8.0508 1.2031 1.3633 1.5508 3.2812 0.89453 4.9805l-1.1211 2.8594 2.9102 1.1406 1.1211-2.8594c1.0664-2.7266 0.55078-5.8203-1.3438-8.0508-1.2031-1.3633-1.5508-3.2812-0.89453-4.9805z"
        vector-effect="non-scaling-stroke" style="fill: rgb(0, 0, 0);" />
      <path
        d="m32.703 61.508-2.9102-1.1406-1.1211 2.8594h0.003906c-1.0664 2.7266-0.55078 5.8203 1.3438 8.0508 1.2031 1.3633 1.5508 3.2812 0.89453 4.9805l-1.1211 2.8594 2.9102 1.1406 1.1211-2.8594c1.0664-2.7266 0.55078-5.8203-1.3438-8.0508-1.2031-1.3633-1.5508-3.2812-0.89453-4.9805z"
        vector-effect="non-scaling-stroke" style="fill: rgb(0, 0, 0);" />
    </g>
  </g>
</svg>