<svg version="1.2" xmlns="http://www.w3.org/2000/svg" xmlns:xlink="http://www.w3.org/1999/xlink"
    overflow="visible" preserveAspectRatio="none" viewBox="0 0 102 102" xml:space="preserve" y="0px"
    x="0px" width="100" height="100"><g transform="translate(1, 1)"><path d="M95,79h-8.25V59.5c0-0.414-0.336-0.75-0.75-0.75h-6V53.5h3.75c0.002,0,0.004,0,0.005,0  c0.414,0,0.75-0.336,0.75-0.75c0-0.094-0.017-0.184-0.048-0.266l-2.229-8.916C82.145,43.234,81.844,43,81.5,43h-9  c-0.344,0-0.645,0.234-0.729,0.568l-2.25,9c-0.056,0.224-0.006,0.461,0.138,0.644c0.142,0.183,0.36,0.288,0.591,0.288H74v5.25h-6  c-0.414,0-0.75,0.336-0.75,0.75V79H57.5v-7.5h3.75c0.414,0,0.75-0.336,0.75-0.75V59.5c0-0.414-0.336-0.75-0.75-0.75h-1.5v-10.5  c0-0.414-0.336-0.75-0.75-0.75H16.25c-0.414,0-0.75,0.336-0.75,0.75v10.5H14c-0.414,0-0.75,0.336-0.75,0.75v11.25  c0,0.414,0.336,0.75,0.75,0.75h3.75V79H5c-0.414,0-0.75,0.336-0.75,0.75S4.586,80.5,5,80.5h90c0.414,0,0.75-0.336,0.75-0.75  S95.414,79,95,79z M73.086,44.5h7.828l1.875,7.5H71.211L73.086,44.5z M75.5,53.5h3v5.25h-3V53.5z M85.25,60.25v7.5h-16.5v-7.5H85.25  z M68.75,69.25h16.5V79h-16.5V69.25z M17,49h41.25v9.75h-3.042c-0.483-4.496-5.327-4.5-7.458-4.5s-6.975,0.004-7.458,4.5h-5.334  c-0.483-4.496-5.327-4.5-7.458-4.5s-6.975,0.004-7.458,4.5H17V49z M53.693,58.75H41.807c0.427-2.752,3.267-3,5.943-3  S53.268,55.998,53.693,58.75z M33.443,58.75H21.557c0.427-2.752,3.267-3,5.943-3S33.017,55.998,33.443,58.75z M14.75,60.25H60.5V70  H14.75V60.25z M19.25,71.5H56V79H19.25V71.5z" fill="#000000" vector-effect="non-scaling-stroke" style="fill: rgb(255, 255, 255);"/><path d="M77,64.75c0.197,0,0.391-0.08,0.529-0.22c0.141-0.142,0.221-0.333,0.221-0.53s-0.08-0.391-0.221-0.53  c-0.279-0.28-0.779-0.28-1.061,0c-0.14,0.14-0.22,0.333-0.22,0.53s0.08,0.391,0.22,0.53C76.609,64.67,76.803,64.75,77,64.75z" fill="#000000" vector-effect="non-scaling-stroke" style="fill: rgb(255, 255, 255);"/><path d="M20.75,40H54.5c0.414,0,0.75-0.336,0.75-0.75V19c0-0.414-0.336-0.75-0.75-0.75H20.75  C20.336,18.25,20,18.586,20,19v20.25C20,39.664,20.336,40,20.75,40z M21.5,35.061l7.125-7.125L39.189,38.5H21.5V35.061z   M53.75,19.75V38.5H41.311L29.155,26.345c-0.293-0.293-0.768-0.293-1.061,0L21.5,32.939V19.75H53.75z" fill="#000000" vector-effect="non-scaling-stroke" style="fill: rgb(255, 255, 255);"/><path d="M45.5,33.25c2.895,0,5.25-2.355,5.25-5.25s-2.355-5.25-5.25-5.25s-5.25,2.355-5.25,5.25  S42.605,33.25,45.5,33.25z M45.5,24.25c2.068,0,3.75,1.682,3.75,3.75s-1.682,3.75-3.75,3.75s-3.75-1.682-3.75-3.75  S43.432,24.25,45.5,24.25z" fill="#000000" vector-effect="non-scaling-stroke" style="fill: rgb(255, 255, 255);"/></g></svg>