<svg version="1.2" xmlns="http://www.w3.org/2000/svg" xmlns:xlink="http://www.w3.org/1999/xlink"
  overflow="visible" preserveAspectRatio="none" viewBox="0 0 102 102" height="42" width="42">
  <g transform="translate(1, 1)">
    <g>
      <path
        d="m50 20.312c2.5273 0 4.8086-1.5234 5.7734-3.8594 0.96875-2.3359 0.43359-5.0234-1.3555-6.8086-1.7852-1.7891-4.4727-2.3242-6.8086-1.3555-2.3359 0.96484-3.8594 3.2461-3.8594 5.7734 0 1.6562 0.66016 3.2461 1.832 4.418s2.7617 1.832 4.418 1.832zm0-9.375c1.2656 0 2.4023 0.76172 2.8867 1.9297 0.48438 1.168 0.21484 2.5117-0.67578 3.4062-0.89453 0.89062-2.2383 1.1602-3.4062 0.67578-1.168-0.48438-1.9297-1.6211-1.9297-2.8867 0-1.7266 1.3984-3.125 3.125-3.125z"
        vector-effect="non-scaling-stroke" style="fill: rgb(255, 255, 255);" />
      <path
        d="m70.312 18.75c1.8945 0 3.6055-1.1406 4.332-2.8945 0.72266-1.75 0.32422-3.7656-1.0156-5.1094-1.3438-1.3398-3.3594-1.7383-5.1094-1.0156-1.7539 0.72656-2.8945 2.4375-2.8945 4.332 0 2.5898 2.0977 4.6875 4.6875 4.6875zm0-6.25c0.63281 0 1.2031 0.37891 1.4453 0.96484 0.23828 0.58203 0.10547 1.2539-0.33984 1.7031-0.44922 0.44531-1.1211 0.57812-1.7031 0.33984-0.58594-0.24219-0.96484-0.8125-0.96484-1.4453 0-0.86328 0.69922-1.5625 1.5625-1.5625z"
        vector-effect="non-scaling-stroke" style="fill: rgb(255, 255, 255);" />
      <path
        d="m29.688 18.75c1.8945 0 3.6055-1.1406 4.332-2.8945 0.72266-1.75 0.32422-3.7656-1.0156-5.1094-1.3438-1.3398-3.3594-1.7383-5.1094-1.0156-1.7539 0.72656-2.8945 2.4375-2.8945 4.332 0 2.5898 2.0977 4.6875 4.6875 4.6875zm0-6.25c0.63281 0 1.2031 0.37891 1.4453 0.96484 0.23828 0.58203 0.10547 1.2539-0.33984 1.7031-0.44922 0.44531-1.1211 0.57812-1.7031 0.33984-0.58594-0.24219-0.96484-0.8125-0.96484-1.4453 0-0.86328 0.69922-1.5625 1.5625-1.5625z"
        vector-effect="non-scaling-stroke" style="fill: rgb(255, 255, 255);" />
      <path
        d="m85.938 25h4.6875c0.41406 0 0.8125-0.16406 1.1055-0.45703s0.45703-0.69141 0.45703-1.1055v-18.75c0-0.41406-0.16406-0.8125-0.45703-1.1055s-0.69141-0.45703-1.1055-0.45703h-81.25c-0.86328 0-1.5625 0.69922-1.5625 1.5625v18.75c0 0.41406 0.16406 0.8125 0.45703 1.1055s0.69141 0.45703 1.1055 0.45703h4.6875v53.125h-4.6875c-0.86328 0-1.5625 0.69922-1.5625 1.5625v9.375c0 0.41406 0.16406 0.8125 0.45703 1.1055s0.69141 0.45703 1.1055 0.45703h1.8242v4.6875c0 0.41406 0.16406 0.8125 0.45703 1.1055s0.69141 0.45703 1.1055 0.45703h74.477c0.41406 0 0.8125-0.16406 1.1055-0.45703s0.45703-0.69141 0.45703-1.1055v-4.6875h1.8242c0.41406 0 0.8125-0.16406 1.1055-0.45703s0.45703-0.69141 0.45703-1.1055v-9.375c0-0.41406-0.16406-0.8125-0.45703-1.1055s-0.69141-0.45703-1.1055-0.45703h-4.6875zm-75-18.75h78.125v15.625h-78.125zm71.875 18.75v6.25h-65.625v-6.25zm-37.5 15.625v-6.25h9.375v6.25zm40.363 53.125h-71.352v-3.125h71.352zm3.3867-6.25h-78.125v-6.25h78.125zm-50-14.062v-10.938h21.875v10.938c0 2.5898-2.0977 4.6875-4.6875 4.6875h-12.5c-2.5898 0-4.6875-2.0977-4.6875-4.6875zm26.562-10.938c0.41406 0 0.8125 0.16406 1.1055 0.45703s0.45703 0.69141 0.45703 1.1055v3.125c0 0.41406-0.16406 0.8125-0.45703 1.1055s-0.69141 0.45703-1.1055 0.45703h-1.5625v-6.25zm-3.1641 15.625c1.0312-1.3438 1.5977-2.9922 1.6016-4.6875v-1.5625h1.5625c2.5898 0 4.6875-2.0977 4.6875-4.6875v-3.125c0-2.5898-2.0977-4.6875-4.6875-4.6875h-28.125c-0.86328 0-1.5625 0.69922-1.5625 1.5625v12.5c0.003906 1.6953 0.57031 3.3438 1.6016 4.6875h-20.352v-43.75h25v7.8125c0 0.41406 0.16406 0.8125 0.45703 1.1055s0.69141 0.45703 1.1055 0.45703h4.6875v1.5625h3.125v-1.5625h4.6875c0.41406 0 0.8125-0.16406 1.1055-0.45703s0.45703-0.69141 0.45703-1.1055v-3.125h17.188v-3.125h-17.188v-1.5625h25v43.75z"
        vector-effect="non-scaling-stroke" style="fill: rgb(255, 255, 255);" />
      <path d="m48.438 48.438h3.125v3.125h-3.125z" vector-effect="non-scaling-stroke"
        style="fill: rgb(255, 255, 255);" />
      <path d="m48.438 54.688h3.125v3.125h-3.125z" vector-effect="non-scaling-stroke"
        style="fill: rgb(255, 255, 255);" />
    </g>
  </g>
</svg>