<svg version="1.2" xmlns="http://www.w3.org/2000/svg" xmlns:xlink="http://www.w3.org/1999/xlink"
  overflow="visible" preserveAspectRatio="none" viewBox="0 0 102 102" height="42" width="42">
  <g transform="translate(1, 1)">
    <g>
      <path
        d="m84.965 42.926c1.8281 0 3.3164-1.4883 3.3164-3.3164v-3.6797c0-1.8281-1.4883-3.3164-3.3164-3.3164h-4.8242l-0.54688-0.875c-0.78516-1.2656-2.0938-1.9922-3.582-1.9922-1.4922 0-2.8008 0.72656-3.5859 1.9922l-0.54688 0.875h-9.0742l-0.54688-0.875c-0.78906-1.2656-2.0938-1.9922-3.5859-1.9922-1.4883 0-2.7969 0.72656-3.5859 1.9922l-0.54688 0.875h-9.0742l-0.54688-0.875c-0.78906-1.2656-2.0938-1.9922-3.582-1.9922-1.4883 0-2.7969 0.72656-3.5859 1.9922l-0.54688 0.875h-9.0742l-0.52734-0.87891c-0.78906-1.2656-2.0938-1.9922-3.5859-1.9922-1.4883 0-2.7969 0.72656-3.582 1.9922l-0.54688 0.875h-4.7461c-1.8281 0-3.3164 1.4883-3.3164 3.3164v3.6797c0 1.8281 1.4883 3.3164 3.3164 3.3164h2.1523v38.262h-2.2578c-1.8281 0-3.3164 1.4883-3.3164 3.3164v3.6836c0 1.8281 1.4883 3.3164 3.3164 3.3164h4.8359l0.56641 0.90625c0.78906 1.2656 2.0938 1.9883 3.582 1.9883s2.7969-0.72656 3.5859-1.9883l0.56641-0.90625h9.0273l0.56641 0.90625c0.78516 1.2656 2.0938 1.9883 3.5859 1.9883 1.4883 0 2.7969-0.72656 3.582-1.9883l0.56641-0.90625h9.0352l0.56641 0.90625c0.78906 1.2656 2.0938 1.9883 3.5859 1.9883s2.7969-0.72656 3.5859-1.9883l0.5625-0.90625h9.0352l0.56641 0.90625c0.78516 1.2656 2.0938 1.9922 3.5859 1.9922 1.4883 0 2.7969-0.72656 3.582-1.9883l0.56641-0.90625h4.4219c1.8281 0 3.3164-1.4883 3.3164-3.3164l-0.011718-3.6875c0-1.8281-1.4883-3.3164-3.3164-3.3164h-1.8477v-38.262zm-0.39062-3.7109h-1.8477c-0.011718-1.0195-0.19531-1.9805-0.52734-2.8984h2.375zm-19.172 41.969v-38.262h3.8867v38.262zm3.8945-41.969h-3.9023c-0.011719-1.0195-0.19531-1.9805-0.53125-2.8984h4.9609c-0.32812 0.91797-0.51172 1.8789-0.52734 2.8984zm-3.8984 45.68h3.8984c0.007813 1.0234 0.1875 1.9805 0.51953 2.8984h-4.9375c0.32812-0.92188 0.51172-1.8789 0.51953-2.8984zm-17.328-3.7109v-38.262h3.8867v38.262zm3.8984-41.969h-3.9023c-0.011718-1.0195-0.19531-1.9805-0.52734-2.8984h4.9609c-0.33984 0.92188-0.52344 1.8789-0.53125 2.8984zm-3.9023 45.68h3.8984c0.011718 1.0234 0.19141 1.9805 0.52344 2.8984h-4.9414c0.32812-0.92188 0.51172-1.8789 0.51953-2.8984zm-17.328-3.7109v-38.262h3.8867v38.262zm3.8945-41.969h-3.9023c-0.011719-1.0195-0.19531-1.9805-0.52734-2.8984h4.9609c-0.33594 0.92188-0.51953 1.8789-0.53125 2.8984zm-3.8984 45.68h3.8984c0.007813 1.0234 0.19141 1.9805 0.51953 2.8984h-4.9375c0.32812-0.92188 0.51172-1.8789 0.51953-2.8984zm-15.203-48.574h2.3008c-0.33203 0.91797-0.51562 1.875-0.53125 2.8984h-1.7695zm-0.10547 48.574h1.8711c0.007813 1.0234 0.19141 1.9805 0.51953 2.8984h-2.3945zm8.1562 5.5547l-1.7891-2.875c-0.54688-0.87891-0.78906-1.7344-0.78906-2.7695v-45.469c0-1.0352 0.24219-1.8906 0.79297-2.7695l1.7891-2.875c0.10547-0.17188 0.23047-0.24219 0.43359-0.24219s0.32812 0.070312 0.43359 0.24219l1.7891 2.875c0.54687 0.87891 0.78906 1.7305 0.78906 2.7695v45.469c0 1.0352-0.24219 1.8906-0.78906 2.7695l-1.7891 2.875c-0.21484 0.34375-0.65625 0.34375-0.87109 0zm17.332 0l-1.7891-2.875c-0.54688-0.87891-0.79297-1.7344-0.79297-2.7695v-45.469c0-1.0352 0.24219-1.8906 0.79297-2.7695l1.7891-2.875c0.10547-0.17188 0.23438-0.24219 0.43359-0.24219 0.19922 0 0.32422 0.070312 0.43359 0.24219l1.7891 2.875c0.54688 0.87891 0.79297 1.7344 0.79297 2.7695v45.469c0 1.0352-0.24609 1.8906-0.79297 2.7695l-1.7891 2.875c-0.21094 0.34375-0.65234 0.34375-0.86719 0zm17.332 0l-1.7852-2.875c-0.54688-0.87891-0.79297-1.7344-0.79297-2.7695v-45.469c0-1.0352 0.24609-1.8906 0.79297-2.7695l1.7852-2.875c0.10547-0.17188 0.23438-0.24219 0.43359-0.24219 0.19922 0 0.32812 0.070312 0.4375 0.24219l1.7852 2.875c0.54688 0.87891 0.79297 1.7344 0.79297 2.7695v45.469c0 1.0352-0.24609 1.8906-0.79297 2.7695l-1.7891 2.875c-0.21094 0.33984-0.65234 0.34375-0.86719 0zm17.332 0l-1.7891-2.875c-0.54687-0.87891-0.78906-1.7344-0.78906-2.7695v-45.469c0-1.0352 0.24219-1.8906 0.79297-2.7695l1.7852-2.875c0.10547-0.17188 0.23047-0.24219 0.4375-0.24219 0.19922 0 0.32422 0.070312 0.43359 0.24219l1.7891 2.875c0.54688 0.87891 0.79297 1.7344 0.79297 2.7695v45.469c0 1.0352-0.24609 1.8906-0.79297 2.7695l-1.7891 2.875c-0.21484 0.33984-0.65625 0.34375-0.87109 0zm8.6133-2.6602h-1.9805c0.32812-0.91797 0.51172-1.875 0.51953-2.8984h1.4609z"
        vector-effect="non-scaling-stroke" style="fill: rgb(255, 255, 255);" />
      <path
        d="m49.387 23.777c-0.51172 0.88672-0.20703 2.0195 0.67969 2.5352 0.29297 0.16797 0.60938 0.24609 0.92578 0.24609 0.64062 0 1.2656-0.33203 1.6094-0.92578 2.2188-3.8477 1.1406-7.2578 0.18359-10.266-0.92969-2.9219-1.4336-4.8242-0.18359-6.9844 0.51172-0.88672 0.20703-2.0195-0.67969-2.5352-0.88672-0.51172-2.0195-0.20703-2.5312 0.67969-2.1289 3.6875-1.0703 7.0195-0.14062 9.9609 0.85547 2.7148 1.5391 4.8594 0.13672 7.2891z"
        vector-effect="non-scaling-stroke" style="fill: rgb(255, 255, 255);" />
      <path
        d="m38.258 23.637c-0.51172 0.88672-0.20703 2.0234 0.67969 2.5312 0.29297 0.16797 0.60938 0.24609 0.92578 0.24609 0.64062 0 1.2656-0.33203 1.6094-0.92969 1.6328-2.832 0.66406-5.3477-0.11328-7.3711-0.78125-2.0273-1.1094-3.0586-0.058594-4.3477 0.64844-0.79297 0.53125-1.9609-0.26172-2.6094-0.79297-0.64844-1.9609-0.53125-2.6094 0.26172-2.4609 3.0156-1.3477 5.9102-0.53125 8.0234 0.70703 1.8555 1.0703 2.957 0.35937 4.1953z"
        vector-effect="non-scaling-stroke" style="fill: rgb(255, 255, 255);" />
      <path
        d="m59.305 25.352c-0.41016 0.9375 0.019531 2.0312 0.96094 2.4414 0.24219 0.10547 0.49219 0.15625 0.73828 0.15625 0.71484 0 1.3984-0.41797 1.7031-1.1133 1.4336-3.2852 0.33594-5.7734-0.39453-7.4219-0.73828-1.6719-0.78516-1.9336 0.003906-2.7227 0.72266-0.72656 0.72266-1.8984 0-2.6211-0.72656-0.72656-1.8984-0.72656-2.6211 0-2.6328 2.6328-1.5156 5.1641-0.77344 6.8438 0.65234 1.4766 1.168 2.6445 0.38281 4.4375z"
        vector-effect="non-scaling-stroke" style="fill: rgb(255, 255, 255);" />
    </g>
  </g>
</svg>