<svg version="1.2" xmlns="http://www.w3.org/2000/svg" xmlns:xlink="http://www.w3.org/1999/xlink"
    overflow="visible" preserveAspectRatio="none" viewBox="0 0 102 102" xml:space="preserve" y="0px"
    x="0px" width="100" height="100"><g transform="translate(1, 1)"><path d="M95,79H84.5V37.75h6c0.002,0,0.004,0,0.005,0c0.414,0,0.75-0.336,0.75-0.75c0-0.093-0.017-0.183-0.048-0.265  l-2.229-8.917c-0.083-0.334-0.384-0.568-0.728-0.568h-9c-0.344,0-0.645,0.234-0.728,0.568l-2.25,9  c-0.056,0.224-0.006,0.461,0.137,0.643c0.142,0.182,0.36,0.289,0.591,0.289h6V79h-5.25V55v-3.5c0-0.48-0.184-0.893-0.533-1.192  c-0.989-0.852-3.057-0.592-6.35-0.097c-1.76,0.266-3.579,0.539-5.117,0.539s-3.357-0.273-5.117-0.539  c-3.292-0.494-5.359-0.756-6.35,0.097c-0.35,0.3-0.533,0.712-0.533,1.192V55v24H48.5V55c0-0.414-0.336-0.75-0.75-0.75H12.5v-6V46  v-6.75c0-3.309,2.691-6,6-6c1.369,0,2.688,0.466,3.75,1.317V43H18.5c-0.414,0-0.75,0.336-0.75,0.75s0.336,0.75,0.75,0.75h9  c0.414,0,0.75-0.336,0.75-0.75S27.914,43,27.5,43h-3.75v-8.78c0-0.213-0.091-0.417-0.25-0.559c-1.376-1.233-3.152-1.912-5-1.912  c-4.136,0-7.5,3.364-7.5,7.5V46v2.25V79H5c-0.414,0-0.75,0.336-0.75,0.75S4.586,80.5,5,80.5h90c0.414,0,0.75-0.336,0.75-0.75  S95.414,79,95,79z M79.836,28.75h7.828l1.875,7.5H77.961L79.836,28.75z M55.25,55.75h21v7.5h-21V55.75z M76.25,64.75V79H66.5V64.75  H76.25z M55.254,51.452c0.366-0.479,3.364-0.026,5.155,0.242c1.814,0.273,3.69,0.556,5.341,0.556s3.526-0.282,5.341-0.556  c1.791-0.27,4.788-0.721,5.153-0.245c0.002,0.004,0.006,0.02,0.006,0.051v2.75h-21V51.5C55.25,51.469,55.254,51.453,55.254,51.452z   M55.25,64.75H65V79h-9.75V64.75z M12.5,67H47v3H12.5V67z M39.5,65.5v-9.75h3v9.75H39.5z M38,65.5h-3v-9.75h3V65.5z M33.5,65.5h-3  v-9.75h3V65.5z M29,65.5h-3v-9.75h3V65.5z M24.5,65.5h-3v-9.75h3V65.5z M20,65.5h-3v-9.75h3V65.5z M47,65.5h-3v-9.75h3V65.5z   M15.5,55.75v9.75h-3v-9.75H15.5z M12.5,71.5H47V79H12.5V71.5z" vector-effect="non-scaling-stroke" /><path d="M69.72,69.03c0.14,0.14,0.333,0.22,0.53,0.22s0.39-0.08,0.53-0.22C70.92,68.89,71,68.697,71,68.5  s-0.08-0.391-0.22-0.53c-0.278-0.277-0.78-0.28-1.061,0c-0.14,0.14-0.22,0.333-0.22,0.53S69.58,68.89,69.72,69.03z" fill="#000000" vector-effect="non-scaling-stroke" style="fill: rgb(255, 255, 255);"/><path d="M61.78,67.97c-0.28-0.277-0.78-0.28-1.061,0c-0.14,0.14-0.22,0.333-0.22,0.53s0.08,0.39,0.22,0.53  c0.14,0.14,0.333,0.22,0.53,0.22s0.39-0.08,0.53-0.22C61.92,68.89,62,68.697,62,68.5S61.92,68.109,61.78,67.97z" fill="#000000" vector-effect="non-scaling-stroke" style="fill: rgb(255, 255, 255);"/><path d="M66.28,60.03c0.14-0.141,0.22-0.333,0.22-0.53s-0.08-0.391-0.22-0.53c-0.28-0.28-0.78-0.28-1.061,0  C65.08,59.109,65,59.303,65,59.5s0.08,0.39,0.22,0.53c0.14,0.14,0.333,0.22,0.53,0.22S66.14,60.17,66.28,60.03z" fill="#000000" vector-effect="non-scaling-stroke" style="fill: rgb(255, 255, 255);"/><path d="M36.5,40h27c0.414,0,0.75-0.336,0.75-0.75V19c0-0.414-0.336-0.75-0.75-0.75h-27  c-0.414,0-0.75,0.336-0.75,0.75v20.25C35.75,39.664,36.086,40,36.5,40z M37.25,32.811l3.75-3.75l9.439,9.439H37.25V32.811z   M62.75,19.75V38.5H52.561L41.53,27.47c-0.293-0.293-0.768-0.293-1.061,0l-3.22,3.22V19.75H62.75z" fill="#000000" vector-effect="non-scaling-stroke" style="fill: rgb(255, 255, 255);"/><path d="M54.5,33.25c2.895,0,5.25-2.355,5.25-5.25s-2.355-5.25-5.25-5.25s-5.25,2.355-5.25,5.25  S51.605,33.25,54.5,33.25z M54.5,24.25c2.068,0,3.75,1.682,3.75,3.75s-1.682,3.75-3.75,3.75s-3.75-1.682-3.75-3.75  S52.432,24.25,54.5,24.25z" fill="#000000" vector-effect="non-scaling-stroke" style="fill: rgb(255, 255, 255);"/><path d="M26.97,47.72c-0.14,0.14-0.22,0.333-0.22,0.53s0.08,0.39,0.22,0.53C27.11,48.92,27.303,49,27.5,49  s0.39-0.08,0.53-0.22c0.14-0.141,0.22-0.333,0.22-0.53s-0.08-0.391-0.22-0.53C27.752,47.439,27.25,47.439,26.97,47.72z" fill="#000000" vector-effect="non-scaling-stroke" style="fill: rgb(255, 255, 255);"/><path d="M22.47,47.72c-0.14,0.14-0.22,0.333-0.22,0.53s0.08,0.39,0.22,0.53C22.61,48.92,22.803,49,23,49  s0.39-0.08,0.53-0.22c0.14-0.141,0.22-0.333,0.22-0.53s-0.08-0.391-0.22-0.53C23.252,47.439,22.75,47.439,22.47,47.72z" fill="#000000" vector-effect="non-scaling-stroke" style="fill: rgb(255, 255, 255);"/><path d="M17.97,47.72c-0.14,0.14-0.22,0.333-0.22,0.53s0.08,0.39,0.22,0.53C18.11,48.92,18.303,49,18.5,49  s0.39-0.08,0.53-0.22c0.14-0.141,0.22-0.333,0.22-0.53s-0.08-0.391-0.22-0.53C18.752,47.439,18.25,47.439,17.97,47.72z" fill="#000000" vector-effect="non-scaling-stroke" style="fill: rgb(255, 255, 255);"/></g></svg>