<svg version="1.2" xmlns="http://www.w3.org/2000/svg" xmlns:xlink="http://www.w3.org/1999/xlink"
    overflow="visible" preserveAspectRatio="none" viewBox="0 0 102 102" height="42" width="42">
    <g transform="translate(1, 1)">
        <path
            d="m37.5 73.438c0-1.2578 0.007812-2.5195 0-3.7773-0.003906-0.53906-0.30469-1.0625-0.77344-1.3398-3.1289-1.8203-5.8438-4.2344-7.9844-7.0898-2.4023-3.2031-4.0703-6.957-4.8281-10.895-0.9375-4.8906-0.48047-10.039 1.3477-14.703 1.7656-4.5078 4.7891-8.5039 8.6445-11.445 3.5469-2.7109 7.7891-4.5039 12.199-5.1523 1.2656-0.1875 2.5508-0.28125 3.832-0.28516h0.085938c3.7578 0.003906 7.5234 0.8125 10.945 2.3672 3.2539 1.4766 6.1953 3.6172 8.6133 6.25 2.1406 2.3359 3.8633 5.0547 5.0508 7.9844 1.6797 4.1484 2.2695 8.7188 1.75 13.109-0.39844 3.3594-1.4453 6.6289-3.0703 9.5938-2.1562 3.9336-5.3203 7.3008-9.0898 9.6953-0.3125 0.19922-0.63281 0.39062-0.95312 0.57812-0.46094 0.27344-0.76562 0.79297-0.76562 1.3438v3.4141 0.35937c0 3.6484 0.007813 7.2969 0 10.945-0.003906 0.61328-0.1875 1.2227-0.53125 1.7344-0.56641 0.84375-1.5586 1.3789-2.5859 1.3828-1.043 0-2.0898 0.003907-3.1328 0.003907v1.5586c0 1.2266-0.50781 2.4531-1.3828 3.3242-0.82422 0.82031-1.9609 1.3164-3.1289 1.3594-0.054688 0-0.10547 0.003906-0.16016 0.003906h-3.1406c-1.2227 0-2.4336-0.5-3.3047-1.3633-0.875-0.86719-1.3828-2.0977-1.3828-3.3242v-1.5586c-1.0469 0-2.0898-0.003907-3.1328-0.003907-0.74219-0.003906-1.4844-0.28125-2.043-0.76953-0.66797-0.58203-1.0664-1.4531-1.0703-2.3477v-10.945zm9.375 14.07v1.5664c0.003906 0.49609 0.25391 0.97656 0.65234 1.2617 0.26172 0.1875 0.58203 0.28906 0.90234 0.29297 1.0469 0.003906 2.0938 0.003906 3.1445 0 0.53906-0.003906 1.0625-0.30469 1.3398-0.77344 0.14063-0.23828 0.21484-0.51172 0.21484-0.79297v-1.5547h-6.25zm12.5-6.2578h-18.75v3.125c1.4492 0.019531 2.8984 0.03125 4.3477 0.039062 0.0625-0.015624 0.125-0.023437 0.1875-0.03125 0.050782-0.003906 0.10156-0.003906 0.15234-0.007812h9.375c0.050781 0.003906 0.10156 0.003906 0.15234 0.007812 0.019531 0.003907 0.039062 0.007813 0.058594 0.007813 1.4922-0.007813 2.9844-0.011719 4.4766-0.015625zm-18.75-3.125h18.75v-3.125h-18.75v3.125zm-12.566-12.27c0.050781 0.007812 0.10156 0.011719 0.15234 0.023437 0.60156 0.11719 1.1055 0.61719 1.2266 1.2266 0.089844 0.45312-0.03125 0.9375-0.32422 1.2969-0.03125 0.039062-0.070312 0.074218-0.10156 0.11328l-4.418 4.4219c-0.039062 0.035156-0.074219 0.070312-0.11328 0.10156-0.31641 0.25781-0.73828 0.38672-1.1445 0.34766-0.40625-0.039063-0.79297-0.24609-1.0547-0.5625-0.32422-0.39453-0.43359-0.95312-0.28516-1.4453 0.042968-0.14453 0.10938-0.28516 0.19531-0.41406 0.078125-0.11328 0.10156-0.13672 0.19531-0.23438l4.4219-4.4219c0.10156-0.089844 0.125-0.11719 0.23438-0.19531 0.17188-0.11328 0.36328-0.19531 0.5625-0.23438 0.13281-0.027344 0.16797-0.023437 0.30469-0.03125 0.050782 0.003906 0.10156 0.007813 0.15234 0.007813zm44.195 0c0.13281 0.019531 0.17188 0.019531 0.30078 0.058593 0.19531 0.058594 0.37891 0.15625 0.53906 0.28906 0.039062 0.03125 0.074219 0.070313 0.11328 0.10156l4.4219 4.4219c0.089844 0.10156 0.11719 0.125 0.19531 0.23438 0.22656 0.33984 0.3125 0.77344 0.23438 1.1719-0.097656 0.5-0.46094 0.94141-0.93359 1.1406-0.51562 0.21484-1.1484 0.125-1.5898-0.23438-0.039062-0.03125-0.074218-0.070312-0.11328-0.10156l-4.4219-4.4219c-0.035156-0.039063-0.070312-0.074219-0.10156-0.11328-0.39063-0.47266-0.46484-1.1797-0.17188-1.7266 0.24219-0.44922 0.71484-0.76953 1.2266-0.82031 0.10156-0.007813 0.20312-0.003907 0.30469 0zm-20.688 6.0195h7.8125v-2.2148c0.003906-1.2148 0.49609-2.4141 1.3398-3.2734 0.27344-0.27734 0.57812-0.51953 0.91016-0.72266 0.035156-0.023437 0.070313-0.042968 0.10547-0.0625 4.0664-2.3594 7.3359-5.8945 9.3672-10.086 1.7031-3.5117 2.5-7.4297 2.3086-11.375-0.1875-3.8438-1.3438-7.6445-3.3477-10.949-2.0273-3.3477-4.918-6.1875-8.3086-8.1602-3.5156-2.043-7.5781-3.1406-11.656-3.1602h-0.09375c-3.3164 0-6.6445 0.71094-9.6719 2.0859-3.8242 1.7383-7.1641 4.5234-9.5703 7.9766-2.0156 2.8984-3.3711 6.2617-3.9141 9.75-0.49609 3.2031-0.33203 6.5 0.50391 9.6484 1.0195 3.832 3.0391 7.3906 5.7891 10.242 1.4922 1.5469 3.1914 2.8867 5.0508 3.9727 0.17969 0.10547 0.35938 0.21484 0.52734 0.33594 1.1367 0.83594 1.8594 2.2031 1.9102 3.6133 0 0.050781 0.003906 0.10156 0.003906 0.15625v2.2148h7.8125v-7.1641l-3.9609-3.9609c-0.035156-0.039063-0.070313-0.074219-0.10156-0.11328-0.35937-0.43359-0.45312-1.0625-0.23437-1.5898 0.21484-0.51953 0.72266-0.90234 1.2891-0.95703 0.10156-0.011719 0.20312-0.007812 0.30469 0 0.050781 0.007813 0.10156 0.011719 0.15234 0.023438 0.19922 0.039062 0.39062 0.12109 0.5625 0.23438 0.11328 0.078125 0.13672 0.10156 0.23828 0.19531l3.3125 3.3125 3.3125-3.3125c0.10156-0.09375 0.125-0.11719 0.23828-0.19531 0.17188-0.11328 0.36328-0.19141 0.5625-0.23438 0.13281-0.027344 0.17188-0.023438 0.30469-0.03125 0.050781 0 0.10156 0.003906 0.15234 0.007812 0.050781 0.007813 0.10156 0.011719 0.15234 0.023438 0.55078 0.10938 1.0234 0.53516 1.1875 1.0781 0.14844 0.48828 0.039062 1.0469-0.28516 1.4453-0.03125 0.039063-0.070312 0.078125-0.10156 0.11328l-3.9609 3.9609v7.1641zm35.938-25h-6.25c-0.050781 0-0.10156 0-0.15234-0.007812-0.45703-0.046876-0.89062-0.30469-1.1445-0.6875-0.33984-0.50781-0.34766-1.2188 0-1.7344 0.22656-0.33984 0.59375-0.58594 0.99219-0.66406 0.13281-0.027344 0.16797-0.023438 0.30469-0.03125h6.25c0.050782 0.003906 0.10156 0.003906 0.15234 0.007812 0.13281 0.019532 0.17188 0.019532 0.30078 0.058594 0.44141 0.13281 0.8125 0.47266 0.99219 0.89844 0.23438 0.5625 0.10156 1.2617-0.33984 1.7031-0.25391 0.25391-0.59375 0.41406-0.95312 0.44922-0.050781 0.007812-0.10156 0.007812-0.15234 0.007812zm-68.75 0h-6.25c-0.13672-0.007812-0.17188-0.003906-0.30469-0.03125-0.60156-0.11719-1.1055-0.61719-1.2266-1.2266-0.10156-0.5 0.066406-1.0469 0.42969-1.4102 0.25391-0.25391 0.59375-0.41406 0.95312-0.44922 0.050781-0.003906 0.10156-0.003906 0.15234-0.007812h6.25c0.050782 0.003906 0.10156 0.003906 0.15234 0.007812 0.050782 0.007813 0.10156 0.011719 0.15234 0.023438 0.60156 0.12109 1.1055 0.61719 1.2266 1.2266 0.10156 0.50391-0.066406 1.0469-0.42969 1.4102-0.21875 0.21875-0.5 0.36719-0.80078 0.42969-0.13281 0.027344-0.16797 0.023438-0.30469 0.03125zm4.8867-29.633c0.13281 0.019531 0.16797 0.019531 0.30078 0.0625 0.19531 0.058593 0.37891 0.15625 0.53906 0.28906 0.039062 0.03125 0.074219 0.070312 0.11328 0.10156l4.418 4.418c0.09375 0.10156 0.11719 0.125 0.19531 0.23828 0.3125 0.46484 0.34766 1.1016 0.078125 1.6016-0.28906 0.53906-0.91016 0.87891-1.5312 0.82031-0.30469-0.03125-0.60156-0.15234-0.83594-0.34766-0.039063-0.03125-0.078125-0.070312-0.11328-0.10156l-4.4219-4.418c-0.035156-0.039062-0.070312-0.074219-0.10156-0.11328-0.38672-0.47266-0.46484-1.1797-0.16797-1.7266 0.24219-0.44922 0.71094-0.76562 1.2227-0.82031 0.10156-0.007813 0.20312-0.003906 0.30859 0zm53.031 0c0.050781 0.007812 0.10156 0.011718 0.15234 0.023437 0.55078 0.10938 1.0234 0.53516 1.1914 1.0781 0.14844 0.48828 0.039063 1.0469-0.28906 1.4453-0.03125 0.039063-0.070312 0.078126-0.10156 0.11328l-4.4219 4.418c-0.10156 0.09375-0.125 0.11719-0.23438 0.19531-0.38281 0.25391-0.88281 0.32812-1.3203 0.19531-0.4375-0.13281-0.8125-0.46875-0.99219-0.89844-0.21484-0.51562-0.125-1.1484 0.23438-1.5898 0.03125-0.039062 0.070313-0.078125 0.10156-0.11328l4.4219-4.418c0.10156-0.09375 0.12109-0.11719 0.23438-0.19531 0.17187-0.11328 0.36328-0.19531 0.5625-0.23438 0.13281-0.027344 0.16797-0.023438 0.30469-0.03125 0.050781 0 0.10156 0.003906 0.15234 0.007812zm-26.516-10.984c0.050781 0.007813 0.10156 0.011719 0.15234 0.023438 0.55078 0.10938 1.0234 0.53516 1.1914 1.0781 0.03125 0.097656 0.050781 0.19922 0.058594 0.30078 0.003906 0.050782 0.003906 0.10156 0.007812 0.15234v6.25c-0.007812 0.13672-0.003906 0.17188-0.03125 0.30469-0.10156 0.5-0.46094 0.94141-0.93359 1.1406-0.42578 0.17578-0.92578 0.15234-1.3359-0.066406-0.45312-0.24219-0.76953-0.71094-0.82031-1.2266-0.003906-0.050782-0.003906-0.10156-0.007812-0.15234v-6.25c0.003906-0.050781 0.003906-0.10156 0.007812-0.15234 0.054688-0.55859 0.42969-1.0703 0.95703-1.2891 0.14062-0.058594 0.29297-0.09375 0.44531-0.10938 0.10156-0.007813 0.20312-0.003907 0.30469 0z"
            vector-effect="non-scaling-stroke" style="fill: rgb(0, 0, 0);" />
    </g>
</svg>