<svg version="1.2" xmlns="http://www.w3.org/2000/svg" xmlns:xlink="http://www.w3.org/1999/xlink"
    overflow="visible" preserveAspectRatio="none" viewBox="0 0 102 102" xml:space="preserve" y="0px"
    x="0px" width="168" height="168"><g transform="translate(1, 1)"><path d="M65.524,67.563c0-4.213-1.661-8.155-4.676-11.1c-1.978-1.933-3.116-4.436-3.265-7.098c0.661-0.033,1.19-0.569,1.19-1.238  V37.012c0-5.615-2.335-8.332-7.523-8.681V6.25C51.25,5.56,50.69,5,50,5s-1.25,0.56-1.25,1.25v22.081  c-5.189,0.349-7.523,3.065-7.523,8.681v11.116c0,0.669,0.529,1.205,1.191,1.238c-0.144,2.68-1.244,5.18-3.091,6.929  c-3.48,3.296-5.224,7.938-4.784,12.733c0.669,7.286,6.428,13.158,13.692,13.962c0.601,0.066,1.198,0.1,1.791,0.1  c3.828,0,7.442-1.374,10.328-3.958C63.64,76.188,65.524,71.972,65.524,67.563z M59.019,77.642c-2.902,2.6-6.652,3.797-10.564,3.36  c-6.324-0.699-11.337-5.812-11.92-12.157c-0.384-4.181,1.135-8.227,4.167-11.098c2.24-2.121,3.565-5.146,3.715-8.369h11.168  c0.153,3.2,1.502,6.206,3.867,8.517c2.626,2.564,4.073,5.999,4.073,9.669C63.524,71.404,61.882,75.077,59.019,77.642z" vector-effect="non-scaling-stroke" style="fill: rgb(128, 128, 128);"/><path d="M23.646,68.646h7.84c0.552,0,1-0.447,1-1s-0.448-1-1-1h-7.84c-0.552,0-1,0.447-1,1S23.093,68.646,23.646,68.646z" vector-effect="non-scaling-stroke" style="fill: rgb(128, 128, 128);"/><path d="M77.354,67.646c0-0.553-0.448-1-1-1h-7.84c-0.552,0-1,0.447-1,1s0.448,1,1,1h7.84  C76.907,68.646,77.354,68.198,77.354,67.646z" vector-effect="non-scaling-stroke" style="fill: rgb(128, 128, 128);"/><path d="M31.364,87.281c0.256,0,0.512-0.098,0.707-0.293l5.544-5.544c0.391-0.391,0.391-1.023,0-1.414s-1.023-0.391-1.414,0  l-5.544,5.544c-0.391,0.391-0.391,1.023,0,1.414C30.853,87.184,31.108,87.281,31.364,87.281z" vector-effect="non-scaling-stroke" style="fill: rgb(128, 128, 128);"/><path d="M62.384,55.261c0.195,0.195,0.451,0.293,0.707,0.293s0.512-0.098,0.707-0.293l5.544-5.544c0.391-0.391,0.391-1.023,0-1.414  s-1.023-0.391-1.414,0l-5.544,5.544C61.994,54.237,61.994,54.87,62.384,55.261z" vector-effect="non-scaling-stroke" style="fill: rgb(128, 128, 128);"/><path d="M30.657,48.303c-0.391,0.391-0.391,1.023,0,1.414l5.544,5.544c0.195,0.195,0.451,0.293,0.707,0.293s0.512-0.098,0.707-0.293  c0.391-0.391,0.391-1.023,0-1.414l-5.544-5.544C31.681,47.912,31.048,47.912,30.657,48.303z" vector-effect="non-scaling-stroke" style="fill: rgb(128, 128, 128);"/><path d="M67.929,86.988c0.195,0.195,0.451,0.293,0.707,0.293s0.512-0.098,0.707-0.293c0.391-0.391,0.391-1.023,0-1.414l-5.544-5.544  c-0.391-0.391-1.023-0.391-1.414,0s-0.391,1.023,0,1.414L67.929,86.988z" vector-effect="non-scaling-stroke" style="fill: rgb(128, 128, 128);"/><path d="M49,86.159V94c0,0.553,0.448,1,1,1s1-0.447,1-1v-7.841c0-0.553-0.448-1-1-1S49,85.606,49,86.159z" vector-effect="non-scaling-stroke" style="fill: rgb(128, 128, 128);"/><path d="M61.552,66.503c-0.552,0-1,0.447-1,1c0,2.494-0.887,4.914-2.497,6.814c-0.357,0.421-0.305,1.052,0.116,1.409  c0.188,0.159,0.417,0.237,0.646,0.237c0.284,0,0.565-0.12,0.763-0.354c1.917-2.261,2.972-5.14,2.972-8.107  C62.552,66.95,62.104,66.503,61.552,66.503z" vector-effect="non-scaling-stroke" style="fill: rgb(128, 128, 128);"/><path d="M55.933,76.227c-0.931,0.634-1.949,1.111-3.026,1.418c-0.531,0.151-0.839,0.705-0.688,1.236  c0.125,0.439,0.526,0.726,0.961,0.726c0.091,0,0.183-0.012,0.274-0.038c1.284-0.366,2.497-0.935,3.604-1.689  c0.457-0.311,0.574-0.933,0.264-1.39C57.012,76.034,56.39,75.917,55.933,76.227z" vector-effect="non-scaling-stroke" style="fill: rgb(128, 128, 128);"/></g></svg>