<svg version="1.2" xmlns="http://www.w3.org/2000/svg" xmlns:xlink="http://www.w3.org/1999/xlink"
    overflow="visible" preserveAspectRatio="none" viewBox="0 0 102 102" height="42" width="42">
    <g transform="translate(1, 1)">
        <path fill-rule="evenodd"
            d="m20.742 5.9727c-2.6406 0.007813-5.2383 0.15234-7.7266 0.29688-0.375-0.039062-0.76172 0.035157-1.0977 0.20312-0.33594 0.16797-0.625 0.4375-0.81641 0.76172-0.015624 0.023437-0.03125 0.050781-0.042968 0.074219-0.003906 0.011718-0.011719 0.019531-0.015625 0.03125-0.17578 0.32812-0.25781 0.70312-0.23438 1.0742 0.023437 0.37109 0.15234 0.73438 0.36719 1.0352 4.0938 8.1328 8.9648 17.629 18.453 21.867 0.007813 0.003906 0.015625 0.007813 0.027344 0.011719 5.5586 2.3906 11.641 1.4375 16.758-0.83203 1.7031 1.0469 3.4062 2.0977 5.1055 3.1445v24.273h-17.949c-1.7305-0.042968-3.3008 0.69922-4.2656 1.8203-0.97656 1.1367-1.3984 2.5547-1.3984 3.9375 0 1.3867 0.42188 2.8008 1.3984 3.9375 0.96484 1.1211 2.5352 1.8555 4.2617 1.8125h1.4453c0.91797 5.5312 1.8359 11.062 2.7539 16.594 0.011719 0.070313 0.027344 0.14453 0.046875 0.21094 0.19141 0.67969 0.21875 2.1484 0.59766 3.7227 0.19141 0.78906 0.5 1.6562 1.1562 2.4336 0.66016 0.78125 1.6953 1.3711 2.832 1.5586 0.10547 0.019532 0.21484 0.027344 0.32422 0.027344h17.82 0.13281c0.75-0.050781 2.2305 0.17578 3.8594-0.058594 0.81641-0.11719 1.7461-0.38281 2.5586-1.0703 0.80078-0.67578 1.3438-1.7305 1.5195-2.8672 1.1484-6.8516 2.2969-13.699 3.4492-20.551h0.5c1.7578 0.3125 3.4844-0.22656 4.5977-1.2578 1.1641-1.0781 1.7383-2.5273 1.875-3.9805 0.13281-1.4492-0.16406-2.9805-1.1172-4.25-0.94141-1.2539-2.6289-2.0898-4.4844-2.0195h-17.922v-6.8008c2.0312-1.4219 4.0625-2.8398 6.0938-4.2617 3.4414 1.457 7.4219 2.1953 11.332 1.0312 0.015625 0 0.03125-0.011718 0.050781-0.015624 8.3828-2.7344 12.508-10.848 15.824-17.422 0.22266-0.30859 0.35156-0.67578 0.375-1.0547s-0.066406-0.76172-0.25-1.0898c-0.011719-0.023437-0.027344-0.046875-0.039062-0.070312-0.007813-0.011719-0.015626-0.023438-0.019532-0.03125-0.19531-0.31641-0.48047-0.57422-0.8125-0.73828-0.33203-0.16406-0.71094-0.23438-1.082-0.19922-7.3516-0.41797-16.449-0.90234-23.008 4.9922-0.011718 0.011719-0.027343 0.023438-0.039062 0.035156-3.2656 3.0938-4.5703 7.4141-4.8828 11.469-1.1797 0.82422-2.3594 1.6484-3.5391 2.4727v-30.988c0.003906-0.26563-0.046875-0.52734-0.14453-0.77344s-0.24609-0.46875-0.42969-0.66016c-0.18359-0.1875-0.41016-0.33984-0.65234-0.44141-0.24219-0.10156-0.50781-0.15625-0.77344-0.15625s-0.52734 0.054687-0.77344 0.15625c-0.24219 0.10156-0.46875 0.25391-0.65234 0.44141s-0.33203 0.41406-0.42969 0.66016-0.14844 0.51172-0.14453 0.77344v13.695c-0.85547-0.52734-1.7109-1.0547-2.5664-1.5781-0.40625-5.8984-2.5859-12.168-7.7539-16.031-0.007812-0.007813-0.015624-0.011719-0.023437-0.015625-6.1133-4.4297-13.414-5.3633-20.434-5.3398zm-0.039063 4.0273c6.5977 0 13.031 0.86719 18.109 4.543 3.1445 2.3516 4.9805 6.0977 5.7617 10.121-3.5547-2.1875-7.1055-4.375-10.66-6.5625-0.22266-0.14062-0.47266-0.23828-0.73437-0.28516-0.26172-0.042968-0.53125-0.035156-0.78516 0.023438-0.25781 0.058594-0.50391 0.17188-0.71875 0.32422-0.21484 0.15234-0.39844 0.35156-0.53516 0.57422-0.13672 0.22656-0.23047 0.47656-0.27344 0.73828-0.039063 0.26172-0.03125 0.53125 0.035156 0.78516 0.0625 0.25781 0.17578 0.5 0.33594 0.71094 0.15625 0.21094 0.35547 0.39453 0.58203 0.52734 3.4258 2.1094 6.8555 4.2227 10.281 6.332-3.6445 1.1055-7.4883 1.2578-10.852-0.17969-7.0781-3.168-11.469-10.27-15.238-17.535 1.5625-0.070313 3.1328-0.12109 4.6914-0.12109zm60.773 21.062c0.82813 0.003906 1.6602 0.027344 2.4922 0.058594-3 5.6719-6.5469 11.082-12.188 12.934-1.9336 0.57031-4.0391 0.48047-6.1094-0.042969 1.7109-1.1953 3.4219-2.3906 5.1328-3.5898 0.21875-0.14844 0.40625-0.33984 0.54687-0.5625 0.14453-0.22266 0.24219-0.47266 0.28906-0.73047 0.046875-0.25781 0.042969-0.52734-0.015625-0.78516-0.054688-0.25781-0.16406-0.50391-0.31641-0.71875s-0.34375-0.40234-0.56641-0.54297c-0.22266-0.14062-0.47266-0.23828-0.73438-0.28125-0.25781-0.042969-0.52734-0.039062-0.78516 0.019531-0.25781 0.058594-0.5 0.16797-0.71484 0.32031-1.6211 1.1328-3.2383 2.2656-4.8594 3.3984 0.57812-2.0625 1.5547-3.9375 3.0195-5.332 3.8516-3.4492 9.2422-4.1758 14.805-4.1484zm-7.6484 30.844c0.55078 0.011719 0.70312 0.17578 0.89453 0.43359 0.21875 0.29297 0.38672 0.87109 0.33203 1.4766-0.054688 0.60547-0.32813 1.1523-0.60938 1.4141s-0.5 0.40625-1.2539 0.23828c-0.14062-0.03125-0.28906-0.046875-0.43359-0.046875h-39.191-0.082031c-0.68359 0.027344-0.90625-0.14062-1.1484-0.42188-0.24219-0.28125-0.43359-0.78906-0.43359-1.3281s0.1875-1.0508 0.43359-1.332c0.24219-0.28125 0.46875-0.45312 1.1523-0.42578h0.074219 39.898 0.10156c0.097656 0 0.18359-0.011718 0.26172 0zm-34.762 7.5156h28.941c-1.1133 6.6289-2.2227 13.258-3.3359 19.891-0.003906 0.015625-0.003906 0.027344-0.007813 0.042969-0.0625 0.41797-0.11328 0.40234-0.14453 0.42578-0.027343 0.023438-0.17578 0.11328-0.55469 0.16797-0.73828 0.10547-2.0469-0.0625-3.4805 0.023437h-17.57c-0.19922-0.042968-0.22266-0.085937-0.28906-0.16406-0.082031-0.097656-0.21875-0.35156-0.32812-0.79688-0.21094-0.86719-0.20703-2.2461-0.60156-3.7344-0.875-5.2852-1.7539-10.566-2.6328-15.852z"
            vector-effect="non-scaling-stroke" style="fill: rgb(255, 255, 255);" />
    </g>
</svg>